# xmcd
#
# Track frame offsets:
#	150
#	17927
#	40637
#	63102
#	80217
#	96707
#	113800
#	131487
#	150362
#	169895
#	194525
#	213097
#	231187
#	257520
#	273657
#	295180
#	310385
#	325195
#
# Disc length: 4605 seconds
#
# Revision: 1
# Processed by: cddbd v1.5PL3 Copyright (c) Steve Scherf et al.
# Submitted via: dBpowerAMP V4.0
#
DISCID=0311fb12
DTITLE=Clouseau - Ballades
DYEAR=2001
DGENRE=Ballad
TTITLE0=Altijd Heb Ik Je Lief
TTITLE1=Passie
TTITLE2=Wil Niet Dat Je Weggaat (Live)
TTITLE3=Als Je Me Wil
TTITLE4=Samen
TTITLE5=Daar Gaat Ze
TTITLE6=Nobelprijs (Live)
TTITLE7=Afscheid Van Een Vriend
TTITLE8=Heb Ik Ooit Gezegd (Live)
TTITLE9=Oker
TTITLE10=Domino (Live)
TTITLE11=Niets Meer
TTITLE12=Een Huis Vol Liefde
TTITLE13=Laat Me Nu Toch Niet Alleen
TTITLE14=Jij Staat Alleen
TTITLE15=Je Bent Niets
TTITLE16=Sluit Mij In Je Hart
TTITLE17=Onvergetelijke Nacht
EXTD=
EXTT0=
EXTT1=
EXTT2=
EXTT3=
EXTT4=
EXTT5=
EXTT6=
EXTT7=
EXTT8=
EXTT9=
EXTT10=
EXTT11=
EXTT12=
EXTT13=
EXTT14=
EXTT15=
EXTT16=
EXTT17=
PLAYORDER=
